<?xml version="1.0" encoding="UTF-8"?>
<!DOCTYPE svg PUBLIC "-//W3C//DTD SVG 1.1//EN" "http://www.w3.org/Graphics/SVG/1.1/DTD/svg11.dtd">
<!-- Creator: CorelDRAW X5 -->
<svg xmlns="http://www.w3.org/2000/svg" xml:space="preserve" width="135.467mm" height="27.6012mm" style="shape-rendering:geometricPrecision; text-rendering:geometricPrecision; image-rendering:optimizeQuality; fill-rule:evenodd; clip-rule:evenodd"
viewBox="0 0 13547 2760"
 xmlns:xlink="http://www.w3.org/1999/xlink"
 xmlns:svg="http://www.w3.org/2000/svg">
 <defs>
  <style type="text/css">
   <![CDATA[
    .fil1 {fill:#a19d9d}
    .fil4 {fill:#a19d9d;fill-rule:nonzero}
    .fil0 {fill:#a19d9d}
    .fil2 {fill:#a19d9d}
    .fil3 {fill:#a19d9d;fill-rule:nonzero}
   ]]>
  </style>
  <linearGradient id="id0" gradientUnits="userSpaceOnUse" x1="464.47" y1="892.92" x2="816.4" y2="1859.83">
   <stop offset="0" style="stop-color:#0064DF"/>
   <stop offset="1" style="stop-color:#0081FA"/>
  </linearGradient>
  <linearGradient id="id1" gradientUnits="userSpaceOnUse" x1="2805.85" y1="2021.98" x2="3564.78" y2="1818.62">
   <stop offset="0" style="stop-color:#0668E1"/>
   <stop offset="1" style="stop-color:#0081FA"/>
  </linearGradient>
  <linearGradient id="id2" gradientUnits="userSpaceOnUse" x1="2473.41" y1="1595.63" x2="1243.14" y2="-16.48">
   <stop offset="0" style="stop-color:#0869E1"/>
   <stop offset="0.129412" style="stop-color:#0869E1"/>
   <stop offset="0.870588" style="stop-color:#0064DF"/>
   <stop offset="1" style="stop-color:#0064DF"/>
  </linearGradient>
 </defs>
 <g id="Layer_x0020_1">
  <metadata id="CorelCorpID_0Corel-Layer"/>
 </g>
 <g id="Layer_x0020_1_0">
  <metadata id="CorelCorpID_1Corel-Layer"/>
  <path class="fil0" d="M1281 3c-29,-3 -57,-4 -87,-4 -676,0 -1194,880 -1194,1811 0,535 238,889 642,943l0 -471c-123,-62 -193,-223 -193,-464 0,-676 337,-1368 739,-1368 31,0 62,3 92,8l0 -456z"/>
  <path class="fil1" d="M633 2752c39,6 80,9 122,9 235,0 424,-77 662,-374l0 -712c-333,519 -454,636 -645,636 -52,0 -98,-12 -139,-35l0 475z"/>
  <path class="fil2" d="M3718 1355c27,147 42,305 42,468 0,309 -101,488 -310,488 -201,0 -297,-133 -678,-746l0 0 -244 -406c-17,-27 -33,-54 -50,-80l-264 444 3 5 204 343c397,664 618,889 1019,889 460,0 716,-373 716,-968 0,-151 -13,-297 -36,-438l-402 0z"/>
  <path class="fil1" d="M2983 -1c-102,0 -198,23 -288,64l0 382c84,-60 169,-90 259,-90 359,0 660,423 765,1007l402 0c-128,-774 -592,-1364 -1138,-1364z"/>
  <path class="fil1" d="M2733 47l0 373c-129,78 -254,225 -395,443 -120,203 -150,254 -259,437 -125,220 -306,540 -306,540 -149,260 -276,450 -391,587l0 -700c19,-30 39,-61 60,-93l0 0c0,0 160,-254 425,-660 124,-182 139,-205 268,-393 179,-242 372,-445 598,-534z"/>
  <path class="fil3" d="M2528 1159c-528,-859 -880,-1160 -1334,-1160l-6 451c297,0 528,234 1029,1078l31 51 280 -421z"/>
  <path class="fil4" d="M6406 1657l-867 -1569 -510 0 0 2578 416 0 0 -1976 760 1368 390 0 760 -1368 0 1976 416 0 0 -2578 -499 0 -867 1569zm3150 -828l0 0c-132,-87 -289,-130 -472,-130 -184,0 -347,43 -489,129 -142,86 -253,205 -332,357 -80,152 -120,327 -120,525 0,195 41,368 122,519 82,151 195,269 342,354 146,85 315,128 508,128 319,0 589,-101 808,-302l-221 -271c-79,75 -163,131 -252,168 -90,37 -196,55 -320,55 -155,0 -283,-45 -384,-135 -101,-90 -165,-214 -191,-371l1412 0 0 -114c0,-210 -36,-393 -107,-549 -71,-156 -173,-277 -305,-364l0 0zm-1001 723l0 0c25,-153 83,-276 176,-366 93,-91 208,-136 345,-136 141,0 255,45 342,134 87,89 137,212 149,369l-1013 0zm2318 -1370l0 0 -401 0 0 563 -383 0 0 341 383 0 0 911c0,474 217,711 650,711 60,0 120,-4 180,-13 52,-7 103,-19 154,-33l0 -337c-44,7 -85,13 -121,18 -37,4 -82,6 -134,6 -119,0 -203,-31 -252,-92 -49,-61 -74,-164 -74,-307l0 -864 582 0 0 -341 -582 0 0 -563zm2280 563l0 0 0 247c-68,-92 -157,-167 -260,-216 -104,-51 -222,-76 -354,-76 -174,0 -329,43 -463,129 -134,86 -240,204 -316,355 -76,151 -114,325 -114,521 0,195 37,369 112,520 75,152 178,271 308,357 131,87 281,130 450,130 137,0 260,-27 368,-82 108,-55 197,-132 267,-233l0 269 394 0 0 -1920 -394 0zm-7 1248l0 0c-43,108 -113,194 -210,258 -97,64 -207,96 -331,96 -168,0 -301,-58 -400,-173 -98,-115 -147,-272 -147,-470 0,-196 51,-352 153,-468 102,-115 239,-173 411,-173 122,0 229,32 321,95 93,63 160,150 203,259l0 576z"/>
 </g>
</svg>
